HIERARCHY
ROOT newVegas:Hips
{
	OFFSET 0.000000 96.479958 0.000000
	CHANNELS 6 Xposition Yposition Zposition Xrotation Yrotation Zrotation
	JOINT newVegas:Pelvis
	{
		OFFSET 0.000000 0.000000 0.000000
		CHANNELS 3 Xrotation Yrotation Zrotation
		JOINT newVegas:LeftUpLeg
		{
			OFFSET 18.735201 -5.666702 -4.541200
			CHANNELS 3 Xrotation Yrotation Zrotation
			JOINT newVegas:LeftLeg
			{
				OFFSET -0.021200 -31.938179 0.493100
				CHANNELS 3 Xrotation Yrotation Zrotation
				JOINT newVegas:LeftFoot
				{
					OFFSET 0.021200 -31.938179 -4.336299
					CHANNELS 3 Xrotation Yrotation Zrotation
					JOINT newVegas:LeftToeBase
					{
						OFFSET 0.943001 -26.722000 15.023500
						CHANNELS 3 Xrotation Yrotation Zrotation
						End Site
						{
							OFFSET 0.000000 30.670183 0.000000
						}
					}
				}
				JOINT newVegas:Left_PantLeg
				{
					OFFSET 0.663870 -9.044666 -1.108900
					CHANNELS 3 Xrotation Yrotation Zrotation
					End Site
					{
						OFFSET 1.415995 20.635357 0.000000
					}
				}
			}
		}
		JOINT newVegas:RightUpLeg
		{
			OFFSET -18.735201 -5.666702 -4.541200
			CHANNELS 3 Xrotation Yrotation Zrotation
			JOINT newVegas:RightLeg
			{
				OFFSET 0.018946 -31.938133 0.493100
				CHANNELS 3 Xrotation Yrotation Zrotation
				JOINT newVegas:RightFoot
				{
					OFFSET -0.018946 -31.938126 -4.336299
					CHANNELS 3 Xrotation Yrotation Zrotation
					JOINT newVegas:RightToeBase
					{
						OFFSET -0.943001 -26.722004 15.023500
						CHANNELS 3 Xrotation Yrotation Zrotation
						End Site
						{
							OFFSET 0.000000 30.670187 0.000000
						}
					}
				}
				JOINT newVegas:Right_PantLeg
				{
					OFFSET -0.661674 -9.044716 -1.108900
					CHANNELS 3 Xrotation Yrotation Zrotation
					End Site
					{
						OFFSET -1.415958 20.635269 0.000000
					}
				}
			}
		}
	}
	JOINT newVegas:Spine
	{
		OFFSET 0.000000 10.199997 -0.299500
		CHANNELS 3 Xrotation Yrotation Zrotation
		JOINT newVegas:Spine1
		{
			OFFSET 0.000000 11.900002 -1.516600
			CHANNELS 3 Xrotation Yrotation Zrotation
			JOINT newVegas:Spine2
			{
				OFFSET 0.000000 13.600006 -2.842500
				CHANNELS 3 Xrotation Yrotation Zrotation
				JOINT newVegas:Neck
				{
					OFFSET 0.000000 9.624100 -2.890100
					CHANNELS 3 Xrotation Yrotation Zrotation
					JOINT newVegas:Head
					{
						OFFSET 0.000000 14.068802 -1.351900
						CHANNELS 3 Xrotation Yrotation Zrotation
						JOINT newVegas:Hair_Back
						{
							OFFSET 0.000000 3.231903 -17.524799
							CHANNELS 3 Xrotation Yrotation Zrotation
							End Site
							{
								OFFSET 0.000000 19.849884 0.000000
							}
						}
						JOINT newVegas:Hair_Front
						{
							OFFSET 0.000000 31.260406 4.573800
							CHANNELS 3 Xrotation Yrotation Zrotation
							JOINT newVegas:Hair_Front1
							{
								OFFSET 0.000000 2.284103 11.993300
								CHANNELS 3 Xrotation Yrotation Zrotation
								JOINT newVegas:Hair_Front2
								{
									OFFSET 0.000000 2.284103 11.993300
									CHANNELS 3 Xrotation Yrotation Zrotation
									End Site
									{
										OFFSET 0.000000 12.208862 0.000000
									}
								}
							}
						}
						JOINT newVegas:Jowel
						{
							OFFSET 0.000000 -7.458206 6.864100
							CHANNELS 3 Xrotation Yrotation Zrotation
							End Site
							{
								OFFSET 0.000000 19.849884 0.000000
							}
						}
					}
				}
				JOINT newVegas:LeftShoulder
				{
					OFFSET 15.263000 10.923401 -0.547700
					CHANNELS 3 Xrotation Yrotation Zrotation
					JOINT newVegas:LeftArm
					{
						OFFSET 25.438599 -2.830597 -13.032500
						CHANNELS 3 Xrotation Yrotation Zrotation
						JOINT newVegas:LeftForeArm
						{
							OFFSET 29.960503 0.000000 0.000000
							CHANNELS 3 Xrotation Yrotation Zrotation
							JOINT newVegas:LeftHand
							{
								OFFSET 27.849251 0.000000 0.000000
								CHANNELS 3 Xrotation Yrotation Zrotation
								JOINT newVegas:LeftHandThumb1
								{
									OFFSET 4.487587 -3.305161 6.305391
									CHANNELS 3 Xrotation Yrotation Zrotation
									JOINT newVegas:LeftHandThumb2
									{
										OFFSET 5.480453 -3.164139 3.164143
										CHANNELS 3 Xrotation Yrotation Zrotation
										JOINT newVegas:LeftHandThumb3
										{
											OFFSET 5.159721 -2.978973 2.978967
											CHANNELS 3 Xrotation Yrotation Zrotation
											End Site
											{
												OFFSET 2.494507 5.926697 1.738678
											}
										}
									}
								}
								JOINT newVegas:LeftHandIndex1
								{
									OFFSET 18.578728 -0.527832 5.208049
									CHANNELS 3 Xrotation Yrotation Zrotation
									JOINT newVegas:LeftHandIndex2
									{
										OFFSET 3.192009 0.000000 0.000000
										CHANNELS 3 Xrotation Yrotation Zrotation
										JOINT newVegas:LeftHandIndex3
										{
											OFFSET 3.835129 0.000000 0.000000
											CHANNELS 3 Xrotation Yrotation Zrotation
											End Site
											{
												OFFSET -0.034599 3.816971 0.371180
											}
										}
									}
								}
								JOINT newVegas:LeftHandMiddle1
								{
									OFFSET 18.476105 0.000000 0.000000
									CHANNELS 3 Xrotation Yrotation Zrotation
									JOINT newVegas:LeftHandMiddle2
									{
										OFFSET 3.324875 0.000000 0.000000
										CHANNELS 3 Xrotation Yrotation Zrotation
										JOINT newVegas:LeftHandMiddle3
										{
											OFFSET 4.596550 0.000000 0.000000
											CHANNELS 3 Xrotation Yrotation Zrotation
											End Site
											{
												OFFSET 0.057701 4.578827 0.399218
											}
										}
									}
								}
								JOINT newVegas:LeftHandRing1
								{
									OFFSET 17.732719 0.121887 -4.201567
									CHANNELS 3 Xrotation Yrotation Zrotation
									JOINT newVegas:LeftHandRing2
									{
										OFFSET 2.733170 0.000000 0.000000
										CHANNELS 3 Xrotation Yrotation Zrotation
										JOINT newVegas:LeftHandRing3
										{
											OFFSET 3.178268 0.000000 0.000000
											CHANNELS 3 Xrotation Yrotation Zrotation
											End Site
											{
												OFFSET 0.119102 3.170624 0.185394
											}
										}
									}
								}
								JOINT newVegas:LeftHandPinky1
								{
									OFFSET 15.989624 -0.606689 -7.535461
									CHANNELS 3 Xrotation Yrotation Zrotation
									JOINT newVegas:LeftHandPinky2
									{
										OFFSET 2.538986 0.000000 0.000000
										CHANNELS 3 Xrotation Yrotation Zrotation
										JOINT newVegas:LeftHandPinky3
										{
											OFFSET 2.593102 0.000000 0.000000
											CHANNELS 3 Xrotation Yrotation Zrotation
											End Site
											{
												OFFSET -0.150902 2.584198 0.152708
											}
										}
									}
								}
							}
							JOINT newVegas:Left_Sleeve
							{
								OFFSET 0.267448 -0.649796 0.577675
								CHANNELS 3 Xrotation Yrotation Zrotation
								End Site
								{
									OFFSET 0.000000 15.991241 0.000000
								}
							}
							JOINT newVegas:Left_CapeC
							{
								OFFSET 15.715958 -8.608795 -6.935905
								CHANNELS 3 Xrotation Yrotation Zrotation
								JOINT newVegas:Left_CapeC1
								{
									OFFSET 0.000000 -8.688499 0.000000
									CHANNELS 3 Xrotation Yrotation Zrotation
									End Site
									{
										OFFSET 0.000000 8.688499 0.000000
									}
								}
							}
						}
						JOINT newVegas:Left_CapeB
						{
							OFFSET 26.118385 -8.608795 -7.079235
							CHANNELS 3 Xrotation Yrotation Zrotation
							JOINT newVegas:Left_CapeB1
							{
								OFFSET 0.000000 -8.688499 0.000000
								CHANNELS 3 Xrotation Yrotation Zrotation
								End Site
								{
									OFFSET 0.000000 8.688499 0.000000
								}
							}
						}
						JOINT newVegas:Left_CapeA
						{
							OFFSET 5.115639 -8.608795 -10.395809
							CHANNELS 3 Xrotation Yrotation Zrotation
							JOINT newVegas:Left_CapeA1
							{
								OFFSET 0.000000 -8.688499 0.000000
								CHANNELS 3 Xrotation Yrotation Zrotation
								End Site
								{
									OFFSET 0.000000 8.688499 0.000000
								}
							}
						}
					}
				}
				JOINT newVegas:RightShoulder
				{
					OFFSET -15.263000 10.923401 -0.547700
					CHANNELS 3 Xrotation Yrotation Zrotation
					JOINT newVegas:RightArm
					{
						OFFSET -25.438599 -2.830597 -13.032500
						CHANNELS 3 Xrotation Yrotation Zrotation
						JOINT newVegas:RightForeArm
						{
							OFFSET -29.960503 0.000000 0.000000
							CHANNELS 3 Xrotation Yrotation Zrotation
							JOINT newVegas:RightHand
							{
								OFFSET -27.849251 0.000000 0.000000
								CHANNELS 3 Xrotation Yrotation Zrotation
								JOINT newVegas:RightHandThumb1
								{
									OFFSET -4.487587 -3.305161 6.305391
									CHANNELS 3 Xrotation Yrotation Zrotation
									JOINT newVegas:RightHandThumb2
									{
										OFFSET -5.480453 -3.164139 3.164143
										CHANNELS 3 Xrotation Yrotation Zrotation
										JOINT newVegas:RightHandThumb3
										{
											OFFSET -5.159721 -2.978973 2.978967
											CHANNELS 3 Xrotation Yrotation Zrotation
											End Site
											{
												OFFSET -2.494507 5.926697 1.738678
											}
										}
									}
								}
								JOINT newVegas:RightHandIndex1
								{
									OFFSET -18.578728 -0.527832 5.208049
									CHANNELS 3 Xrotation Yrotation Zrotation
									JOINT newVegas:RightHandIndex2
									{
										OFFSET -3.192009 0.000000 0.000000
										CHANNELS 3 Xrotation Yrotation Zrotation
										JOINT newVegas:RightHandIndex3
										{
											OFFSET -3.835129 0.000000 0.000000
											CHANNELS 3 Xrotation Yrotation Zrotation
											End Site
											{
												OFFSET 0.034599 3.816971 0.371180
											}
										}
									}
								}
								JOINT newVegas:RightHandMiddle1
								{
									OFFSET -18.476105 0.000000 0.000000
									CHANNELS 3 Xrotation Yrotation Zrotation
									JOINT newVegas:RightHandMiddle2
									{
										OFFSET -3.324875 0.000000 0.000000
										CHANNELS 3 Xrotation Yrotation Zrotation
										JOINT newVegas:RightHandMiddle3
										{
											OFFSET -4.596550 0.000000 0.000000
											CHANNELS 3 Xrotation Yrotation Zrotation
											End Site
											{
												OFFSET -0.057701 4.578827 0.399218
											}
										}
									}
								}
								JOINT newVegas:RightHandRing1
								{
									OFFSET -17.732719 0.121887 -4.201567
									CHANNELS 3 Xrotation Yrotation Zrotation
									JOINT newVegas:RightHandRing2
									{
										OFFSET -2.733170 0.000000 0.000000
										CHANNELS 3 Xrotation Yrotation Zrotation
										JOINT newVegas:RightHandRing3
										{
											OFFSET -3.178268 0.000000 0.000000
											CHANNELS 3 Xrotation Yrotation Zrotation
											End Site
											{
												OFFSET -0.119102 3.170624 0.185394
											}
										}
									}
								}
								JOINT newVegas:RightHandPinky1
								{
									OFFSET -15.989624 -0.606689 -7.535461
									CHANNELS 3 Xrotation Yrotation Zrotation
									JOINT newVegas:RightHandPinky2
									{
										OFFSET -2.538986 0.000000 0.000000
										CHANNELS 3 Xrotation Yrotation Zrotation
										JOINT newVegas:RightHandPinky3
										{
											OFFSET -2.593102 0.000000 0.000000
											CHANNELS 3 Xrotation Yrotation Zrotation
											End Site
											{
												OFFSET 0.150902 2.584198 0.152708
											}
										}
									}
								}
							}
							JOINT newVegas:Right_CapeC
							{
								OFFSET -15.715958 -8.608795 -6.935905
								CHANNELS 3 Xrotation Yrotation Zrotation
								JOINT newVegas:Right_CapeC1
								{
									OFFSET 0.000000 -8.688499 0.000000
									CHANNELS 3 Xrotation Yrotation Zrotation
									End Site
									{
										OFFSET 0.000000 8.688499 0.000000
									}
								}
							}
							JOINT newVegas:Right_Sleeve
							{
								OFFSET -0.267448 -0.649994 0.577675
								CHANNELS 3 Xrotation Yrotation Zrotation
								End Site
								{
									OFFSET 0.000000 15.991302 0.000000
								}
							}
						}
						JOINT newVegas:Right_CapeA
						{
							OFFSET -5.115540 -8.608795 -10.395824
							CHANNELS 3 Xrotation Yrotation Zrotation
							JOINT newVegas:Right_CapeA1
							{
								OFFSET 0.000000 -8.688499 0.000000
								CHANNELS 3 Xrotation Yrotation Zrotation
								End Site
								{
									OFFSET 0.000000 8.688499 0.000000
								}
							}
						}
						JOINT newVegas:Right_CapeB
						{
							OFFSET -26.118187 -8.608795 -7.079266
							CHANNELS 3 Xrotation Yrotation Zrotation
							JOINT newVegas:Right_CapeB1
							{
								OFFSET 0.000000 -8.688499 0.000000
								CHANNELS 3 Xrotation Yrotation Zrotation
								End Site
								{
									OFFSET 0.000000 8.688499 0.000000
								}
							}
						}
					}
				}
				JOINT newVegas:Left_Collar
				{
					OFFSET 18.625099 8.655502 8.828100
					CHANNELS 3 Xrotation Yrotation Zrotation
					JOINT newVegas:Left_Collar1
					{
						OFFSET 14.783401 10.540405 -1.259500
						CHANNELS 3 Xrotation Yrotation Zrotation
						End Site
						{
							OFFSET 0.000000 18.199875 0.000000
						}
					}
				}
				JOINT newVegas:Collar_Back
				{
					OFFSET 0.000000 15.630707 -20.132601
					CHANNELS 3 Xrotation Yrotation Zrotation
					End Site
					{
						OFFSET 0.000000 22.523010 0.000000
					}
				}
				JOINT newVegas:Left_Peck
				{
					OFFSET 17.239599 -5.132599 25.482599
					CHANNELS 3 Xrotation Yrotation Zrotation
					End Site
					{
						OFFSET 0.000000 22.523010 0.000000
					}
				}
				JOINT newVegas:Right_Peck
				{
					OFFSET -17.239599 -5.132202 25.482599
					CHANNELS 3 Xrotation Yrotation Zrotation
					End Site
					{
						OFFSET 0.000000 22.523010 0.000000
					}
				}
				JOINT newVegas:Right_Collar
				{
					OFFSET -18.625099 8.655792 8.828100
					CHANNELS 3 Xrotation Yrotation Zrotation
					JOINT newVegas:Right_Collar1
					{
						OFFSET -14.783401 10.539993 -1.259500
						CHANNELS 3 Xrotation Yrotation Zrotation
						End Site
						{
							OFFSET 0.000000 18.199631 0.000000
						}
					}
				}
			}
		}
		JOINT newVegas:Belly
		{
			OFFSET 0.000000 -6.540398 9.014299
			CHANNELS 3 Xrotation Yrotation Zrotation
			End Site
			{
				OFFSET 0.000000 11.566666 0.000000
			}
		}
	}
	JOINT newVegas:ElvisFacialAnim_Joint
	{
		OFFSET 1.000000 -95.330101 -8.825800
		CHANNELS 3 Xrotation Yrotation Zrotation
		End Site
		{
			OFFSET 0.000000 35.315800 0.000000
		}
	}
}
MOTION
Frames: 4
Frame Time: 0.016667
-1.290817 86.819824 3.983999 -1.734052 -17.016484 -1.789527 0.000000 -0.000000 0.000000 -39.131930 15.920399 16.911082 54.575315 0.162195 8.626916 -16.006560 1.899370 -9.951013 0.000000 0.000000 0.000000 0.000000 0.000000 0.000001 -30.476103 -21.588170 -16.585706 51.166771 -1.890352 -10.330473 -20.490462 -3.472707 14.590285 0.000000 0.000000 0.000000 0.000001 0.000000 -0.000002 3.888598 2.352982 -0.517328 2.929113 2.056185 -0.138334 2.894090 2.112998 -0.161224 0.457476 0.085649 2.100553 0.457481 0.085648 2.100553 0.000001 -0.000001 -0.000001 0.457482 0.085645 2.100555 0.457476 0.085642 2.100558 -0.000000 -0.000001 -0.000000 0.000001 -0.000001 -0.000000 1.375475 -4.867615 21.431204 -66.234270 -43.614846 -65.822021 -0.000003 -37.698365 -0.000001 -66.348601 -13.253372 -9.215230 22.600992 -28.107333 -14.151481 29.406833 28.726522 -29.411771 0.000003 0.000000 -0.000004 0.797695 3.221919 -27.804730 0.799560 3.225541 -27.838606 0.000001 0.000000 0.000001 0.796777 3.220228 -27.788712 0.800503 3.227218 -27.854640 0.000001 0.000000 -0.000000 0.797698 3.221903 -27.804730 0.799572 3.225526 -27.838599 -0.000000 0.000001 0.000001 2.684969 6.814128 -27.459464 0.809032 -0.835567 -28.291871 -0.000001 0.000003 -0.000000 -0.000003 0.000003 0.000001 -0.000003 0.000003 0.000001 -0.000003 0.000004 0.000001 0.000001 0.000000 0.000000 0.000000 0.000000 0.000000 0.000001 0.000000 0.000000 0.000000 -0.000000 -0.000000 0.445408 -0.777911 -3.588726 -96.770653 65.301157 91.341732 -0.000010 28.227469 0.000013 -31.535677 -1.128097 -3.934988 40.606602 -3.110550 26.124219 -37.849541 -44.265018 -46.874977 -0.000000 -0.000003 -0.000004 3.635334 -6.110994 61.464463 7.728623 -6.904473 96.464442 0.000002 0.000002 -0.000001 3.635331 -6.110969 61.464469 7.728602 -6.904466 96.464435 -0.000004 0.000000 -0.000001 3.635334 -6.110957 61.464463 7.728613 -6.904449 96.464449 -0.000001 0.000002 0.000001 3.635345 -6.111009 61.464469 7.728589 -6.904442 96.464442 -0.000003 -0.000002 -0.000000 -0.000001 -0.000002 -0.000001 0.000001 -0.000000 0.000000 -0.000001 -0.000002 -0.000000 -0.000002 0.000000 -0.000000 -0.000002 0.000000 0.000000 -0.000002 0.000000 -0.000000 -0.000002 -0.000000 0.000000 -0.000000 -0.000001 0.000000 -0.000000 -0.000001 0.000000 -0.000000 -0.000001 0.000000 -0.000000 -0.000001 0.000000 -0.000000 -0.000001 0.000000 -0.000000 -0.000001 0.000000 -0.000000 -0.000001 0.000000 -0.000000 0.000002 -0.000000 0.000000 -0.000000 0.000000 
-1.282761 86.824997 3.979299 -1.678330 -16.976850 -1.807680 -0.000000 0.000000 -0.000000 -39.238610 15.969003 16.887926 54.567706 0.126776 8.761959 -15.978305 1.902361 -9.971292 -0.000000 -0.000000 -0.000000 0.000001 0.000000 0.000001 -30.386504 -21.419651 -16.413112 51.052727 -2.132448 -10.326797 -20.429547 -3.492822 14.703406 -0.000000 0.000000 0.000000 -0.000002 0.000002 -0.000000 3.853062 2.333547 -0.532969 2.899331 2.043580 -0.147449 2.864489 2.099782 -0.170384 0.437092 0.090859 2.095024 0.437093 0.090859 2.095022 0.000000 0.000000 -0.000000 0.437165 0.090859 2.095026 0.437086 0.090867 2.095023 -0.000000 0.000000 -0.000001 0.000000 0.000000 0.000000 1.287687 -4.591924 21.372326 -66.225924 -43.832783 -66.089559 -0.000005 -37.650113 -0.000011 -66.346292 -13.265074 -9.206503 22.600990 -28.107323 -14.151465 29.406836 28.726505 -29.411792 0.000001 -0.000001 -0.000006 0.797663 3.221946 -27.804718 0.799568 3.225534 -27.838618 0.000002 0.000000 0.000000 0.796769 3.220227 -27.788686 0.800500 3.227216 -27.854644 0.000000 -0.000000 0.000001 0.797664 3.221935 -27.804713 0.799583 3.225519 -27.838615 -0.000001 -0.000001 0.000001 2.684964 6.814141 -27.459474 0.809053 -0.835584 -28.291875 -0.000003 -0.000003 -0.000000 -0.000001 -0.000002 -0.000002 -0.000001 -0.000002 -0.000002 -0.000002 -0.000002 -0.000002 0.000001 0.000001 -0.000001 0.000001 0.000000 0.000000 0.000001 0.000001 -0.000001 0.000001 0.000000 -0.000001 0.432491 -0.830613 -3.627957 -97.091713 65.466188 91.848388 0.000003 28.156123 -0.000006 -31.844657 -1.022885 -3.997939 40.606595 -3.110547 26.124219 -37.849541 -44.265015 -46.874977 -0.000000 -0.000000 -0.000001 3.635331 -6.110993 61.464463 7.728624 -6.904469 96.464442 0.000002 -0.000000 0.000001 3.635331 -6.110968 61.464469 7.728599 -6.904460 96.464428 -0.000001 0.000000 0.000001 3.635331 -6.110954 61.464463 7.728611 -6.904448 96.464449 -0.000000 0.000001 -0.000001 3.635349 -6.111011 61.464469 7.728595 -6.904446 96.464442 -0.000000 0.000003 -0.000000 -0.000000 0.000001 0.000001 -0.000001 0.000001 -0.000000 -0.000000 0.000001 0.000001 -0.000000 0.000001 -0.000000 -0.000000 0.000001 -0.000000 -0.000000 0.000001 -0.000000 -0.000000 0.000001 -0.000000 -0.000000 -0.000000 0.000000 -0.000000 -0.000000 0.000000 -0.000000 -0.000000 0.000000 -0.000000 -0.000000 0.000000 -0.000000 -0.000000 0.000000 -0.000000 -0.000000 0.000000 -0.000000 -0.000000 0.000000 -0.000000 0.000001 -0.000000 -0.000000 0.000000 -0.000000 
-1.274374 86.830017 3.970841 -1.624739 -16.933197 -1.821136 -0.000000 -0.000001 -0.000000 -39.341774 16.018779 16.850729 54.551819 0.095464 8.906483 -15.941136 1.906338 -9.995986 0.000000 -0.000000 -0.000000 0.000001 0.000000 0.000001 -30.301018 -21.244479 -16.243708 50.945831 -2.392563 -10.322981 -20.370095 -3.512423 14.820214 0.000000 0.000000 0.000000 0.000001 0.000002 0.000001 3.806677 2.305117 -0.554916 2.860568 2.025400 -0.161203 2.825895 2.080957 -0.184224 0.407906 0.099305 2.087907 0.407915 0.099299 2.087908 0.000001 -0.000000 -0.000000 0.408044 0.099304 2.087908 0.407834 0.099314 2.087905 0.000000 0.000000 -0.000000 0.000001 -0.000000 0.000000 1.196434 -4.307697 21.316486 -66.220289 -44.104707 -66.348751 0.000001 -37.562342 0.000002 -66.391351 -13.293690 -9.237435 22.600983 -28.107332 -14.151479 29.406836 28.726515 -29.411771 0.000003 0.000001 -0.000003 0.797675 3.221936 -27.804725 0.799614 3.225513 -27.838618 0.000001 -0.000000 0.000000 0.796778 3.220218 -27.788705 0.800480 3.227234 -27.854645 -0.000000 -0.000000 0.000001 0.797674 3.221925 -27.804730 0.799612 3.225508 -27.838613 0.000000 -0.000001 -0.000000 2.684958 6.814141 -27.459490 0.809033 -0.835557 -28.291876 0.000001 0.000002 0.000000 -0.000000 0.000001 0.000000 -0.000000 0.000001 0.000000 -0.000001 0.000001 0.000000 0.000001 0.000001 0.000001 0.000001 0.000000 0.000001 0.000001 0.000001 0.000001 0.000001 -0.000000 0.000000 0.420648 -0.879266 -3.679279 -97.395718 65.635365 92.333427 0.000011 28.079222 -0.000007 -32.174836 -0.927889 -4.091885 40.606595 -3.110548 26.124217 -37.849545 -44.265008 -46.874977 0.000001 -0.000004 -0.000001 3.635332 -6.110995 61.464463 7.728620 -6.904474 96.464442 -0.000002 -0.000001 -0.000001 3.635332 -6.110971 61.464463 7.728599 -6.904456 96.464435 0.000002 0.000001 0.000001 3.635332 -6.110958 61.464463 7.728613 -6.904450 96.464449 -0.000002 0.000001 -0.000002 3.635345 -6.111012 61.464463 7.728590 -6.904443 96.464442 -0.000002 -0.000000 -0.000001 0.000003 0.000001 0.000001 0.000001 0.000000 0.000001 0.000003 0.000000 0.000001 -0.000001 0.000000 -0.000000 -0.000001 0.000000 -0.000000 -0.000001 0.000000 -0.000000 -0.000001 -0.000000 -0.000000 0.000001 0.000000 0.000000 0.000001 0.000000 0.000000 0.000001 0.000000 0.000000 0.000001 0.000000 0.000000 0.000001 0.000000 0.000000 0.000001 0.000000 0.000000 0.000001 0.000000 0.000000 -0.000000 0.000001 -0.000000 -0.000000 -0.000001 -0.000000 
-1.265945 86.835625 3.960939 -1.576466 -16.885078 -1.836349 -0.000000 0.000001 0.000000 -39.440856 16.063840 16.814751 54.535796 0.059682 9.044319 -15.901408 1.910704 -10.016331 -0.000000 -0.000000 0.000000 0.000002 0.000000 -0.000000 -30.209162 -21.070700 -16.073467 50.838095 -2.658989 -10.318908 -20.310476 -3.533516 14.937412 -0.000000 0.000000 0.000000 -0.000002 0.000006 -0.000002 3.758216 2.278019 -0.572179 2.820241 2.007299 -0.173256 2.785800 2.062074 -0.196305 0.380573 0.106304 2.080458 0.380584 0.106303 2.080458 0.000002 0.000000 -0.000000 0.380644 0.106305 2.080457 0.380502 0.106308 2.080458 -0.000001 0.000001 -0.000000 0.000002 0.000000 -0.000000 1.103780 -4.021743 21.257212 -66.219176 -44.417014 -66.594706 -0.000007 -37.422244 -0.000002 -66.480533 -13.342001 -9.321739 22.601004 -28.107364 -14.151483 29.406819 28.726536 -29.411764 0.000003 0.000000 -0.000004 0.797686 3.221918 -27.804730 0.799586 3.225525 -27.838615 -0.000000 -0.000000 0.000000 0.796782 3.220205 -27.788712 0.800504 3.227217 -27.854649 0.000001 -0.000000 0.000001 0.797689 3.221907 -27.804737 0.799612 3.225509 -27.838615 0.000001 0.000001 0.000000 2.684957 6.814128 -27.459498 0.809080 -0.835587 -28.291866 -0.000001 0.000002 -0.000000 0.000001 0.000000 -0.000000 0.000001 0.000000 -0.000000 -0.000000 0.000000 -0.000000 -0.000002 -0.000001 -0.000001 -0.000002 -0.000001 -0.000001 -0.000002 -0.000001 -0.000001 -0.000002 -0.000001 -0.000001 0.410450 -0.920575 -3.746363 -97.673638 65.806578 92.793393 0.000002 28.006409 -0.000002 -32.526324 -0.855762 -4.208721 40.606595 -3.110550 26.124227 -37.849545 -44.265015 -46.874980 -0.000000 0.000002 0.000001 3.635332 -6.110995 61.464456 7.728624 -6.904473 96.464435 0.000001 0.000000 0.000000 3.635326 -6.110968 61.464463 7.728598 -6.904459 96.464428 -0.000002 -0.000001 -0.000001 3.635330 -6.110954 61.464463 7.728617 -6.904454 96.464449 0.000001 0.000001 -0.000001 3.635342 -6.111010 61.464463 7.728596 -6.904445 96.464442 0.000002 0.000002 -0.000001 -0.000000 -0.000001 -0.000000 0.000001 -0.000002 0.000000 -0.000000 -0.000001 -0.000000 -0.000002 0.000001 0.000000 -0.000002 0.000000 0.000000 -0.000002 0.000001 0.000000 -0.000002 -0.000000 0.000000 0.000000 -0.000001 0.000000 0.000000 -0.000001 0.000000 0.000000 -0.000001 0.000000 0.000000 -0.000001 0.000000 0.000000 -0.000001 0.000000 0.000000 -0.000001 0.000000 0.000000 -0.000001 0.000000 0.000000 -0.000000 0.000000 -0.000000 0.000001 0.000000 
